<svg width="36" height="37" viewBox="0 0 36 37" fill="none" xmlns="http://www.w3.org/2000/svg">
<g clip-path="url(#clip0_2109_90)">
<path d="M17.9062 36.0566C8.17401 36.0566 0.255859 28.1386 0.255859 18.4063C0.255859 8.67401 8.17401 0.755859 17.9062 0.755859C27.6386 0.75586 35.5566 8.67401 35.5566 18.4062C35.5566 28.1386 27.6386 36.0566 17.9062 36.0566ZM27.2383 10.0332C28.5351 9.75328 29.6871 9.57174 30.5811 9.53223C30.897 9.51877 31.1836 9.52532 31.4355 9.54785C28.5406 5.14145 23.5599 2.22363 17.9062 2.22363C12.5043 2.22363 7.7163 4.88789 4.77539 8.96875C10.2605 5.37602 15.7761 5.40097 16.6035 5.47363V5.47461C19.0862 5.52069 21.5934 6.16535 23.9043 7.47461C25.1612 8.18689 26.2699 9.05688 27.2383 10.0332ZM17.8945 12.9248C19.8351 12.1622 21.9043 11.4664 23.8125 10.9072C24.5434 10.6944 25.2533 10.5072 25.9355 10.3379C25.3774 9.79953 24.7495 9.31496 24.0537 8.90234C19.8675 6.42663 14.6319 7.29681 11.4463 10.7178C13.4379 11.2729 15.6327 12.058 17.8945 12.9248ZM16.1963 34.4971C10.4203 31.5075 7.73382 26.7455 7.37109 25.96C6.18434 23.7751 5.50781 21.2713 5.50781 18.6113C5.50781 17.244 5.69099 15.9196 6.02539 14.6582C5.1094 13.6618 4.3554 12.7414 3.8623 11.9775V11.9766C3.68245 11.6965 3.53706 11.4349 3.42773 11.1963C2.34091 13.3692 1.72363 15.8159 1.72363 18.4063C1.72363 26.7518 8.07461 33.6403 16.1963 34.4971ZM18.8682 34.5566C27.3446 34.0569 34.0889 27.0059 34.0889 18.4062C34.0889 16.0958 33.5987 13.899 32.7217 11.9092C33.0315 18.4215 30.2431 23.1393 29.7646 23.8145C28.4718 25.9342 26.6485 27.7724 24.3516 29.1064C23.1333 29.8141 21.8577 30.3336 20.5586 30.6777C20.1476 31.9473 19.7223 33.0339 19.3057 33.8301C19.1597 34.1077 19.013 34.3513 18.8682 34.5566ZM17.9062 21.5977C19.6686 21.5977 21.0977 20.1686 21.0977 18.4062C21.0977 16.6439 19.6686 15.2148 17.9062 15.2148C16.1439 15.2148 14.7148 16.6439 14.7148 18.4062C14.7148 20.1686 16.1439 21.5977 17.9062 21.5977ZM14.4707 27.8545C13.9696 25.8517 13.5357 23.5828 13.1738 21.1865C11.5371 19.8973 9.91206 18.4924 8.46582 17.127L7.58496 16.2734C7.36701 16.0575 7.15616 15.8418 6.94922 15.6299C6.78604 16.3214 6.69042 17.0398 6.67578 17.7783C6.58559 22.6412 9.92375 26.7692 14.4707 27.8545ZM20.9512 29.3916C21.6647 29.1826 22.3673 28.8915 23.0449 28.5156C27.2948 26.1514 29.1872 21.1931 27.8428 16.7168C26.3625 18.1559 24.6186 19.6703 22.7285 21.1865C22.4136 23.2466 21.9918 25.3543 21.5166 27.2861L21.2031 28.498C21.1208 28.8022 21.0356 29.1001 20.9512 29.3916Z" fill="#E46AE6" stroke="#E46AE6" stroke-width="0.3"/>
</g>
<defs>
<clipPath id="clip0_2109_90">
<rect width="37" height="36" fill="white" transform="matrix(0 1 -1 0 36 0)"/>
</clipPath>
</defs>
</svg>
