<svg width="35" height="35" viewBox="0 0 35 35" fill="none" xmlns="http://www.w3.org/2000/svg">
<g clip-path="url(#clip0_2116_193)">
<path d="M17.0651 0.146484C7.72693 0.146484 0.129639 7.74378 0.129639 17.082C0.129639 26.4201 7.72693 34.0175 17.0651 34.0175C26.4032 34.0175 34.0006 26.4201 34.0006 17.082C34.0006 7.74378 26.4032 0.146484 17.0651 0.146484ZM32.8709 17.082C32.8709 19.7254 32.2153 22.2173 31.0633 24.4093C30.9643 24.1181 30.785 23.7729 30.5342 23.3824C30.0541 22.6386 29.3123 21.7329 28.4041 20.749C28.7376 19.5172 28.9184 18.2215 28.9184 16.8835C28.9184 14.3342 28.2708 11.9354 27.1335 9.84165C26.7969 9.10359 24.0242 4.15507 17.9809 1.30481C26.2711 1.7808 32.8709 8.67391 32.8709 17.082ZM20.2984 17.082C20.2984 18.8676 18.8508 20.3152 17.0651 20.3152C15.2795 20.3152 13.8319 18.8676 13.8319 17.082C13.8319 15.2963 15.2795 13.8487 17.0651 13.8487C18.8508 13.8487 20.2984 15.2963 20.2984 17.082ZM13.7122 8.52329C13.249 10.4061 12.8385 12.4622 12.5335 14.4693C10.6167 16.005 8.85515 17.5379 7.37974 18.9871C5.92429 14.5325 7.77589 9.53325 12.0221 7.1714C12.7669 6.7583 13.5423 6.44951 14.3297 6.24127C14.1169 6.9609 13.9095 7.72646 13.7122 8.52329ZM11.3089 24.1995C13.1694 23.6542 15.1886 22.9764 17.0776 22.2319C19.3709 23.1116 21.5892 23.9062 23.5846 24.448C20.4738 27.9528 15.2233 28.8777 11.0415 26.4043C10.2808 25.9532 9.60301 25.4147 9.01029 24.8133C9.74498 24.6348 10.5136 24.4311 11.3089 24.1995ZM21.5098 14.4693H21.5109C21.1457 12.0405 20.7051 9.74713 20.1929 7.74378C24.7758 8.72287 28.1686 12.835 28.0783 17.6928C28.0622 18.5084 27.9464 19.2988 27.7477 20.0547C27.2351 19.5244 26.6861 18.9791 26.1016 18.4255C24.6917 17.0944 23.1057 15.7241 21.5098 14.4693ZM16.4408 1.29201C16.2461 1.51946 16.0446 1.83352 15.8397 2.22326C15.4338 2.999 15.0158 4.06846 14.6118 5.32583C13.3405 5.65533 12.0918 6.15993 10.9003 6.85206C8.69585 8.1324 6.94706 9.89738 5.70778 11.9324C5.23895 12.594 2.35441 17.4735 2.92266 24.1269C1.86073 22.0042 1.25935 19.6125 1.25935 17.082C1.25935 8.57601 8.01426 1.62151 16.4408 1.29201ZM17.0651 32.8878C11.4305 32.8878 6.47861 29.9219 3.67919 25.4716C3.97442 25.5265 4.34986 25.5432 4.79271 25.5243C5.66371 25.4858 6.79793 25.3074 8.0813 25.0275C9.02272 25.9863 10.1038 26.8385 11.3318 27.5344C13.5499 28.7911 15.9561 29.4101 18.3386 29.4527C19.1495 29.5239 24.8544 29.551 30.3291 25.6617C27.5093 30.0058 22.6188 32.8878 17.0651 32.8878Z" fill="#E46AE6"/>
</g>
<defs>
<clipPath id="clip0_2116_193">
<rect width="35" height="35" fill="white"/>
</clipPath>
</defs>
</svg>
